<svg xmlns="http://www.w3.org/2000/svg" viewBox="0 0 595.28 841.89"><defs><style>.cls-1{fill:#fff;}.cls-2{font-size:50px;}.cls-2,.cls-3,.cls-4,.cls-7{fill:#f0f;}.cls-2,.cls-3{font-family:Dosis-SemiBold, Dosis;font-weight:600;}.cls-3{font-size:45px;}.cls-4{font-size:20.47px;font-family:Exo-Regular, Exo;letter-spacing:0.02em;}.cls-5{fill:#b8529e;}.cls-6{fill:#c69;}.cls-8{fill:none;stroke:#fff;stroke-miterlimit:10;}</style></defs><title>slim n fit magenta</title><g id="Layer_8" data-name="Layer 8"><rect class="cls-1" width="595.28" height="841.89"/></g><g id="Layer_5" data-name="Layer 5"><text class="cls-2" transform="translate(462.9 401.06) rotate(94.56) scale(0.97 1)">.</text><text class="cls-2" transform="translate(461.94 412.13) rotate(98.37) scale(0.97 1)">.</text><text class="cls-2" transform="translate(460.25 423.12) rotate(102.21) scale(0.97 1)">.</text><text class="cls-2" transform="matrix(-0.27, 0.93, -0.96, -0.28, 457.83, 433.96)">.</text><text class="cls-2" transform="translate(454.68 444.6) rotate(109.92) scale(0.97 1)">.</text><text class="cls-2" transform="translate(450.83 455.03) rotate(113.79) scale(0.97 1)">.</text><text class="cls-2" transform="translate(446.28 465.16) rotate(117.67) scale(0.97 1)">.</text><text class="cls-2" transform="translate(441.05 474.97) rotate(121.55) scale(0.97 1)">.</text><text class="cls-2" transform="matrix(-0.56, 0.79, -0.81, -0.58, 435.18, 484.38)">.</text><text class="cls-2" transform="translate(428.69 493.38) rotate(129.35) scale(0.97 1)">.</text><text class="cls-2" transform="matrix(-0.67, 0.71, -0.73, -0.69, 421.58, 501.93)">.</text><text class="cls-2" transform="translate(413.93 509.94) rotate(137.23) scale(0.97 1)">.</text><text class="cls-2" transform="matrix(-0.76, 0.61, -0.63, -0.78, 405.74, 517.42)">.</text><text class="cls-2" transform="translate(397.04 524.31) rotate(145.22) scale(0.97 1)">.</text><text class="cls-2" transform="matrix(-0.84, 0.5, -0.51, -0.86, 387.89, 530.57)">.</text><text class="cls-2" transform="translate(378.32 536.17) rotate(153.33) scale(0.97 1)">.</text><text class="cls-2" transform="translate(368.4 541.07) rotate(157.43) scale(0.97 1)">.</text><text class="cls-2" transform="translate(358.14 545.25) rotate(161.55) scale(0.97 1)">.</text><text class="cls-2" transform="translate(347.62 548.67) rotate(165.68) scale(0.97 1)">.</text><text class="cls-2" transform="translate(336.87 551.34) rotate(169.8) scale(0.97 1)">.</text><text class="cls-2" transform="translate(325.98 553.22) rotate(173.89) scale(0.97 1)">.</text><text class="cls-2" transform="translate(314.96 554.37) rotate(178.63) scale(0.97 1)">.</text><text class="cls-2" transform="translate(303.87 554.64) rotate(-177.98) scale(0.97 1)">.</text><text class="cls-2" transform="translate(292.82 554.17) rotate(-173.88) scale(0.97 1)">.</text><text class="cls-2" transform="translate(281.8 552.91) rotate(-169.75) scale(0.97 1)">.</text><text class="cls-2" transform="translate(270.94 550.87) rotate(-165.63) scale(0.97 1)">.</text><text class="cls-2" transform="matrix(-0.92, -0.31, 0.32, -0.95, 260.24, 548.05)">.</text><text class="cls-2" transform="matrix(-0.9, -0.37, 0.38, -0.92, 249.74, 544.45)">.</text><text class="cls-2" transform="translate(239.54 540.13) rotate(-153.35) scale(0.97 1)">.</text><text class="cls-2" transform="matrix(-0.84, -0.5, 0.51, -0.86, 229.68, 535.09)">.</text><text class="cls-2" transform="matrix(-0.8, -0.55, 0.57, -0.82, 220.2, 529.37)">.</text><text class="cls-2" transform="matrix(-0.76, -0.61, 0.62, -0.78, 211.12, 523)">.</text><text class="cls-2" transform="matrix(-0.72, -0.66, 0.68, -0.74, 202.49, 516)">.</text><text class="cls-2" transform="matrix(-0.67, -0.71, 0.73, -0.69, 194.38, 508.43)">.</text><text class="cls-2" transform="translate(186.78 500.3) rotate(-129.55) scale(0.97 1)">.</text><text class="cls-2" transform="matrix(-0.57, -0.79, 0.81, -0.58, 179.77, 491.7)">.</text><text class="cls-2" transform="matrix(-0.51, -0.83, 0.85, -0.53, 173.36, 482.64)">.</text><text class="cls-2" transform="translate(167.57 473.15) rotate(-117.91) scale(0.97 1)">.</text><text class="cls-2" transform="translate(162.45 463.31) rotate(-114.04) scale(0.97 1)">.</text><text class="cls-2" transform="translate(157.99 453.13) rotate(-110.18) scale(0.97 1)">.</text><text class="cls-2" transform="matrix(-0.27, -0.93, 0.96, -0.28, 154.22, 442.67)">.</text><text class="cls-2" transform="translate(151.17 432) rotate(-102.5) scale(0.97 1)">.</text><text class="cls-2" transform="translate(148.84 421.11) rotate(-98.68) scale(0.97 1)">.</text><text class="cls-2" transform="matrix(-0.08, -0.97, 1, -0.09, 147.23, 410.11)">.</text><text class="cls-3" transform="translate(166.9 365.08) rotate(-70.83)">S</text><text class="cls-3" transform="translate(174.15 345.04) rotate(-64.98)"> </text><text class="cls-3" transform="translate(177.54 337.72) rotate(-61.71)"> </text><text class="cls-3" transform="translate(181.33 330.61) rotate(-58.44)"> </text><text class="cls-3" transform="translate(184.91 324.08) rotate(-52.94)">L</text><text class="cls-3" transform="matrix(0.68, -0.74, 0.74, 0.68, 197.02, 308.41)"> </text><text class="cls-3" transform="translate(202.45 302.45) rotate(-44.21)"> </text><text class="cls-3" transform="translate(208.22 296.81) rotate(-40.96)"> </text><text class="cls-3" transform="translate(214.21 291.53) rotate(-37.4)">I</text><text class="cls-3" transform="translate(221.9 285.64) rotate(-33.84)"> </text><text class="cls-3" transform="translate(228.57 281.14) rotate(-30.58)"> </text><text class="cls-3" transform="matrix(0.89, -0.46, 0.46, 0.89, 235.5, 277.01)"> </text><text class="cls-3" transform="translate(241.33 273.07) rotate(-20.02)">M</text><text class="cls-3" transform="translate(268.57 263.75) rotate(-12.73)"> </text><text class="cls-3" transform="translate(276.44 261.94) rotate(-9.44)"> </text><text class="cls-3" transform="matrix(0.99, -0.11, 0.11, 0.99, 284.37, 260.59)"> </text><text class="cls-3" transform="translate(292.4 259.7) rotate(-2.94)"> </text><text class="cls-3" transform="translate(300.26 259.21) rotate(0.93)"> </text><text class="cls-3" transform="translate(308.53 259.27) rotate(3.49)"> </text><text class="cls-3" transform="translate(316.58 259.74) rotate(6.74)"> </text><text class="cls-3" transform="matrix(0.97, 0.23, -0.23, 0.97, 323.78, 259.98)">N</text><text class="cls-3" transform="translate(347.83 266.04) rotate(19.76)"> </text><text class="cls-3" transform="translate(355.43 268.74) rotate(23.05)"> </text><text class="cls-3" transform="translate(362.85 271.86) rotate(26.33)"> </text><text class="cls-3" transform="translate(370.1 275.42) rotate(29.61)"> </text><text class="cls-3" transform="translate(377.11 279.38) rotate(32.87)"> </text><text class="cls-3" transform="translate(383.63 283.55) rotate(36)"> </text><text class="cls-3" transform="translate(389.91 288.07) rotate(39.11)"> </text><text class="cls-3" transform="translate(395.66 292.19) rotate(44.7)">F</text><text class="cls-3" transform="translate(410.22 306.93) rotate(50.29)"> </text><text class="cls-3" transform="translate(415.2 312.88) rotate(53.41)"> </text><text class="cls-3" transform="matrix(0.55, 0.83, -0.83, 0.55, 419.84, 319.07)"> </text><text class="cls-3" transform="matrix(0.5, 0.87, -0.87, 0.5, 424.11, 325.42)">I</text><text class="cls-3" transform="matrix(0.45, 0.89, -0.89, 0.45, 428.81, 333.51)"> </text><text class="cls-3" transform="matrix(0.4, 0.92, -0.92, 0.4, 432.29, 340.4)"> </text><text class="cls-3" transform="matrix(0.35, 0.94, -0.94, 0.35, 435.4, 347.48)"> </text><text class="cls-3" transform="matrix(0.25, 0.97, -0.97, 0.25, 438.25, 353.94)">T</text></g><g id="Layer_7" data-name="Layer 7"><text class="cls-4" transform="translate(171.8 611.72) scale(1.1 1)">shape up with confidence</text><text/><path class="cls-5" d="M321.35,373.44c3.22,0,3.23-5,0-5s-3.22,5,0,5Z"/><path class="cls-5" d="M324.18,365.68c3.21,0,3.22-5,0-5s-3.23,5,0,5Z"/><path class="cls-5" d="M328.41,365c3.22,0,3.22-5,0-5s-3.22,5,0,5Z"/><path class="cls-5" d="M328.41,365c3.22,0,3.22-5,0-5s-3.22,5,0,5Z"/><path class="cls-5" d="M328.41,365c3.22,0,3.22-5,0-5s-3.22,5,0,5Z"/><path class="cls-5" d="M328.41,365c3.22,0,3.22-5,0-5s-3.22,5,0,5Z"/><path class="cls-6" d="M318.53,358.09c3.22,0,3.22-5,0-5s-3.22,5,0,5Z"/><path class="cls-6" d="M312.82,339.82a175.71,175.71,0,0,0,9.73,23.65c1.43,2.88,5.75.35,4.31-2.52a168.16,168.16,0,0,1-9.22-22.46c-1-3-5.82-1.74-4.82,1.33Z"/></g><g id="Layer_2" data-name="Layer 2"><path class="cls-7" d="M342.77,403.15c-.07-2.69-.59-16.5-1-21.5s-.42-13.61-.85-16.5a32.14,32.14,0,0,0-1.91-6.71c-1.51-4.53-8.74-14.72-8.74-14.72s-2.79-4.5-6.2-10.54a25.07,25.07,0,0,1-2.9-12.8c1.71,9.47,8.68,11.44,8.68,11.44-4-2.15-4.6-4.74-4.6-4.74,2.94,5,11.57,3.6,10.39,3.64a22.45,22.45,0,0,1-4.52-1,14.57,14.57,0,0,0,9.16-1.44c-6.4-1.14-7.54-8.73-7.54-8.73a5.42,5.42,0,0,0,3.51,3.69c-2.23-1.89-2.37-2.46-4-8.33s.09-5.61-2.54-11.62c-4.82-12.53-14.2-8.19-14.2-8.19a13.71,13.71,0,0,1,5.65-1.23c-9.51-.92-13,5.61-13,5.61s-.18-.26-8.24-.79-14.91,9-14.91,9c.79-3.12,6.31-7.54,6.31-7.54-2.23,1.18-6.53,5.52-7.32,7.41a6.17,6.17,0,0,0-.57,3.11c-2.93,2.36-1.75,5.08-1.84,4.16a4.52,4.52,0,0,1,1-2.28,5,5,0,0,0-.09,4.3,7.08,7.08,0,0,1,.26-2.85,30.63,30.63,0,0,0,3.07,11.35,1.73,1.73,0,0,0,1.93,1.18s-.18,4.3-.48,6.49.66,2.06,1.49,1.89,3.33-.14,3.68.3,0,1.41.18,2,1.62.66,1.62.66c-.4,1.79.48,1.8.48,1.8.74-.33,1.77.61,1.77.61,1.1,1.64.51,2.45,1.85,3.15,3.22,1.1,6.07-1.75,6.07-1.75s2.49-2,3.94-.35a9.18,9.18,0,0,1,1.93,6.62c-.18,2.45-1.14,3.24-3.68,5.13a8.29,8.29,0,0,0-3.11,4.29,13,13,0,0,1,2.63-2c1.49-.83,4.64-.39,4.64-.39-3.2.39-4.38,1-7.54,4.34s-2.71,11.35-2.71,11.35a46.64,46.64,0,0,1-.8-5.53l-3.59,3.25s-3.9,3.38-7.67,6.8-5.13,7.1-4.86,10.87,2.54,6.88,4.29,9.46,1.23,3.12,1.1,4.34-1.14,6.1-1.14,6.1l11,1.53c0-.44.7-4.69.53-5.83a49.1,49.1,0,0,1-.75-11c.44-8.15,2.59-10.6,2.59-10.6a53.73,53.73,0,0,0-1.67,7.62,38.54,38.54,0,0,0,1,12.95,5.16,5.16,0,0,1-.17,3.39A17.76,17.76,0,0,0,301,413c-1.32-1.22-1.61-3.95-1.61-3.95s-.86,0-4.9-.72a42,42,0,0,1-12.39-4.11A47.43,47.43,0,0,1,271,396.92c-.08-.07-.19-.13-.27-.2a15.84,15.84,0,0,1-3-2,24.56,24.56,0,0,1-3.67-4.28,18.69,18.69,0,0,1-1.88-3.77c-.83-2.28-.73-3.7-1.94-4.37-1.21-.43-2.31,1-1.8,3,.09.83,1.17,2.16,1.37,3a.78.78,0,0,1-.31,1.07c-.89.14-2.9-.47-5-1.2a6.72,6.72,0,0,1-3.36-1.92,11.21,11.21,0,0,1-1.83-3.18,19.52,19.52,0,0,0-.76-1.86c-.65-1.23-.63-2-1.45-3.39-.84-1.53-1.48-2-2-2.06-.91.28-.4,1.3-.05,3a23,23,0,0,0,2.49,7.64c.28.59.43,1.23.75,1.79a16.65,16.65,0,0,0,5.66,5.8c.5.42,3.39,2.1,3.89,2.65.71.89,4.9,4,5.26,4.33,2.45,1.75,6.65,5.89,12.17,10.54a232.87,232.87,0,0,0,25.07,17.36c8.51,5.08,8.16,3.06,11.14.26s4.91-14.64,4.91-14.64A33.46,33.46,0,0,1,313.16,429c-3.85,7-7.89,3.86-11.92,2s-13.59-9.38-13.59-9.38.79,2.28.79,14.29a92.2,92.2,0,0,1-2.8,22.09,57.13,57.13,0,0,1,22.17-17.45s-2.36,1.67-7.36,5.52c-7.71,5.09-12.45,11-16.83,21.83-3.77,14.38-.7,30.33-.7,30.33.26-2.89,1.58-7.8,6-16.13s17.53-18.32,25.6-23.4a43.36,43.36,0,0,0,12.09-11.13,7.1,7.1,0,0,1-1.31,2.54c-1.4,3.33-10.78,10.34-12.45,11.48S298.08,473.17,294,478.52c-9.2,13.15-9.11,22.79-8.67,26.82,1.22,11.58,6.48,16.66,6.48,16.66-.61-10.52,4.3-18.23,6.58-21.56,6.92-8.86,18.93-17.36,18.93-17.36l-2.1,2.1A44.23,44.23,0,0,0,304,499.47c-2.81,5.52-.53,14.2-.53,14.2.79-9.55,10.7-15.95,10.7-15.95s9.38-7.1,13.95-11.22,8.05-10.52,10.5-15.61,1.93-10.17,1.14-15.86-4.05-11.71-5.5-14.34-.59-3.55-.19-4.53,5.72-13.15,6.7-15.39a44.72,44.72,0,0,0,2-8.08C343.16,410.71,342.84,405.85,342.77,403.15Zm-24-19.62a8,8,0,0,1,1.81-5.33,13.91,13.91,0,0,0,1.74-4.4s.4,3.25-.92,4.86a7.89,7.89,0,0,0-1.48,4.44s-.29,6.28-.42,9.76a26.16,26.16,0,0,1-1.09,6.38C318.61,398.42,318.74,386.06,318.77,383.53Zm11.9,24a20.65,20.65,0,0,1,.27,6.12,62.66,62.66,0,0,0-3.36,8.54s-.85,4.15-.19,6.12a15.32,15.32,0,0,1,.46,4.8,12.35,12.35,0,0,0-2.24-4.87c-7.36,6.38-12.29,6.51-12.29,6.51,9.79-4,11-7.89,11-7.89s-1.06-3.68-.73-4.8-.06-3.22.46-4.27.46-2.76,1-3.82.33-3.48.52-4.93,7-17.09,7-17.09-.85,3.62-2,7S330,404.6,330.67,407.49Z"/><path class="cls-8" d="M154.79,328.35"/><path class="cls-5" d="M250.13,384.38l-1.46-4a21.51,21.51,0,0,1-.81-2.66c-.06-.62-.27-2,.37-1.87a2.39,2.39,0,0,1,1.66,1.49,13.07,13.07,0,0,1,.36,3.54A26.79,26.79,0,0,1,250.13,384.38Z"/><path class="cls-5" d="M250.61,380.62s-.07,1.81-.08,2.43-.18,2.25.92,3.09a8.56,8.56,0,0,0,3.06,1.66c1.26.4,3,1.05,3.5,1.17s1.23.29,1.52-.28A15.74,15.74,0,0,1,256.3,387c-.71-.69-1-.61-1.15-1.43a27.17,27.17,0,0,0-.55-3.64c-.23-.44-.75-1.62-1.15-1.18s-.28,2.74-.26,2.91.1,1.71.12,1.84-.74-.1-.84-1.07a28.09,28.09,0,0,1,.15-3.52s0-2.18-.5-2.67-.79-.6-1.07-.22A11.13,11.13,0,0,0,250.61,380.62Z"/></g></svg>